<?xml version="1.0" standalone="no"?>
 <!DOCTYPE svg PUBLIC "-//W3C//DTD SVG 1.1//EN" 
 "http://www.w3.org/Graphics/SVG/1.1/DTD/svg11.dtd"> 
<svg
  xmlns:svg="http://www.w3.org/2000/svg"
  xmlns="http://www.w3.org/2000/svg"
  xmlns:xlink="http://www.w3.org/1999/xlink"
  version="1.1"
  width="7.419340cm" height="5.651500cm" viewBox="0 0 74193400 56515000">
<title>SVG Picture created as untitled-brd.svg date 2023/08/07 17:08:54 </title>
  <desc>Picture generated by PCBNEW </desc>
<g style="fill:#000000; fill-opacity:1.000000;stroke:#000000; stroke-opacity:1.000000;
stroke-linecap:round; stroke-linejoin:round;"
 transform="translate(0 0) scale(1 1)">
</g>
<g style="fill:#000000; fill-opacity:0.0; 
stroke:#000000; stroke-width:0.000000; stroke-opacity:1; 
stroke-linecap:round; stroke-linejoin:round;">
</g>
<g style="fill:#000000; fill-opacity:0.0; 
stroke:#000000; stroke-width:100000.000000; stroke-opacity:1; 
stroke-linecap:round; stroke-linejoin:round;">
<path d="M71190000 31040000
L72210000 31040000
" />
<path d="M71700000 30530000
L71700000 31550000
" />
<path d="M71190000 28500000
L72210000 28500000
" />
<path d="M71700000 27990000
L71700000 29010000
" />
<path d="M71190000 25960000
L72210000 25960000
" />
<path d="M71700000 25450000
L71700000 26470000
" />
<path d="M71190000 23420000
L72200000 23420000
" />
<path d="M71700000 22910000
L71700000 23930000
" />
<path d="M57180000 29620000
L57180000 26220000
" />
<path d="M55380000 27920000
L58880000 27920000
" />
<path d="M31780000 27920000
L35280000 27920000
" />
<path d="M33580000 26220000
L33580000 29620000
" />
<path d="M8380000 27920000
L11780000 27920000
" />
<path d="M10080000 26220000
L10080000 29620000
" />
<g >
</g>
<g >
</g>
<g >
</g>
</g>
<g style="fill:#000000; fill-opacity:0.0; 
stroke:#000000; stroke-width:100000.000000; stroke-opacity:1; 
stroke-linecap:round; stroke-linejoin:round;">
<circle cx="17060000.000000" cy="3100000.000000" r="1300000.000000" /> 
<path d="M50000 50040000
L6480000 56480000
" />
<path d="M50000 50040000
L50000 6485000
" />
<path d="M6490000 55000
L69390000 50000
" />
<path d="M69390000 50000
L69390000 13230000
" />
<path d="M74150000 13230000
L74100000 43290000
" />
<path d="M69450000 43290000
L69460000 56490000
" />
<circle cx="65120000.000000" cy="14040000.000000" r="800000.000000" /> 
<path d="M69390000 13230000
L74150000 13230000
" />
<circle cx="61120000.000000" cy="53090000.000000" r="1300000.000000" /> 
<circle cx="17050000.000000" cy="53070000.000000" r="1300000.000000" /> 
<circle cx="53700000.000000" cy="3000000.000000" r="800000.000000" /> 
<path d="M6490000 55000
L50000 6485000
" />
<path d="M74100000 43290000
L69450000 43290000
" />
<circle cx="61080000.000000" cy="3030000.000000" r="1300000.000000" /> 
<circle cx="24530000.000000" cy="53020000.000000" r="800000.000000" /> 
<path d="M69460000 56490000
L6480000 56480000
" />
<g >
</g>
<g >
</g>
<g >
</g>
</g> 
</svg>
